<?xml version="1.0" encoding="UTF-8" standalone="no"?>
<!-- Generator: Adobe Illustrator 23.0.3, SVG Export Plug-In . SVG Version: 6.00 Build 0)  -->

<svg
   xmlns:dc="http://purl.org/dc/elements/1.1/"
   xmlns:cc="http://creativecommons.org/ns#"
   xmlns:rdf="http://www.w3.org/1999/02/22-rdf-syntax-ns#"
   xmlns:svg="http://www.w3.org/2000/svg"
   xmlns="http://www.w3.org/2000/svg"
   xmlns:sodipodi="http://sodipodi.sourceforge.net/DTD/sodipodi-0.dtd"
   xmlns:inkscape="http://www.inkscape.org/namespaces/inkscape"
   version="1.1"
   id="Layer_1"
   x="0px"
   y="0px"
   viewBox="0 0 264 280"
   style="enable-background:new 0 0 264 280;"
   xml:space="preserve"
   sodipodi:docname="favicon.svg"
   inkscape:version="0.92.4 (5da689c313, 2019-01-14)"><metadata
   id="metadata183"><rdf:RDF><cc:Work
       rdf:about=""><dc:format>image/svg+xml</dc:format><dc:type
         rdf:resource="http://purl.org/dc/dcmitype/StillImage" /></cc:Work></rdf:RDF></metadata><defs
   id="defs181">
						
					
					
					
					
					
				
						
						
					</defs><sodipodi:namedview
   pagecolor="#ffffff"
   bordercolor="#666666"
   borderopacity="1"
   objecttolerance="10"
   gridtolerance="10"
   guidetolerance="10"
   inkscape:pageopacity="0"
   inkscape:pageshadow="2"
   inkscape:window-width="1366"
   inkscape:window-height="706"
   id="namedview179"
   showgrid="false"
   inkscape:zoom="1.8338728"
   inkscape:cx="115.94183"
   inkscape:cy="122.68375"
   inkscape:window-x="-8"
   inkscape:window-y="-8"
   inkscape:window-maximized="1"
   inkscape:current-layer="g172" />
<style
   type="text/css"
   id="style2">
	.st0{fill-rule:evenodd;clip-rule:evenodd;fill:#E6E6E6;}
	.st1{filter:url(#Adobe_OpacityMaskFilter);}
	.st2{fill-rule:evenodd;clip-rule:evenodd;fill:#FFFFFF;}
	.st3{mask:url(#mask-2_1_);}
	.st4{fill-rule:evenodd;clip-rule:evenodd;fill:#2C3E50;}
	.st5{filter:url(#Adobe_OpacityMaskFilter_1_);}
	.st6{mask:url(#mask-4_1_);}
	.st7{fill-rule:evenodd;clip-rule:evenodd;fill:#D0C6AC;}
	.st8{filter:url(#Adobe_OpacityMaskFilter_2_);}
	.st9{mask:url(#mask-6_1_);}
	.st10{fill-rule:evenodd;clip-rule:evenodd;fill:#EDB98A;}
	.st11{filter:url(#Adobe_OpacityMaskFilter_3_);}
	.st12{mask:url(#mask-6_2_);fill-rule:evenodd;clip-rule:evenodd;fill-opacity:0.1;}
	.st13{filter:url(#Adobe_OpacityMaskFilter_4_);}
	.st14{mask:url(#react-mask-952_1_);}
	.st15{filter:url(#Adobe_OpacityMaskFilter_5_);}
	.st16{opacity:0.6;mask:url(#react-mask-952_2_);}
	.st17{fill-rule:evenodd;clip-rule:evenodd;fill-opacity:0.16;}
	.st18{fill-rule:evenodd;clip-rule:evenodd;fill-opacity:0.7;}
	.st19{filter:url(#Adobe_OpacityMaskFilter_6_);}
	.st20{mask:url(#react-mask-934_1_);fill-rule:evenodd;clip-rule:evenodd;fill:#FFFFFF;}
	.st21{filter:url(#Adobe_OpacityMaskFilter_7_);}
	.st22{mask:url(#react-mask-934_2_);}
	.st23{fill-rule:evenodd;clip-rule:evenodd;fill:#FF4F6D;}
	.st24{fill-rule:evenodd;clip-rule:evenodd;fill-opacity:0.6;}
	.st25{filter:url(#Adobe_OpacityMaskFilter_8_);}
	.st26{mask:url(#react-mask-925_1_);}
	.st27{fill-rule:evenodd;clip-rule:evenodd;fill:#28354B;}
	.st28{filter:url(#Adobe_OpacityMaskFilter_9_);}
	.st29{mask:url(#react-mask-924_1_);}
	.st30{fill-rule:evenodd;clip-rule:evenodd;fill:#4A312C;}
</style>
<desc
   id="desc4">Created with getavataaars.com</desc>
<g
   id="g176">
	<g
   transform="translate(-825.000000, -1100.000000)"
   id="g174">
		<g
   transform="translate(825.000000, 1100.000000)"
   id="g172">
			
			<g
   id="Mask">
			</g>
			<defs
   id="defs27">
				<filter
   id="Adobe_OpacityMaskFilter_1_"
   filterUnits="userSpaceOnUse"
   x="-1"
   y="0"
   width="265"
   height="280">
					<feColorMatrix
   type="matrix"
   values="1 0 0 0 0  0 1 0 0 0  0 0 1 0 0  0 0 0 1 0"
   id="feColorMatrix24" />
				</filter>
			</defs>
			<mask
   maskUnits="userSpaceOnUse"
   x="-1"
   y="0"
   width="265"
   height="280"
   id="mask-4_1_">
				<g
   class="st5"
   id="g30">
					<path
   id="path-3_1_"
   class="st2"
   d="M12,160c0,66.3,53.7,120,120,120s120-53.7,120-120h12V0H0v160H12z" />
				</g>
			</mask>
			<g
   id="g1112"
   transform="translate(-12.041764,34.898822)"><g
     style="fill:#264143;fill-opacity:1"
     transform="translate(12,40)"
     id="Circle">
				<g
   style="fill:#264143;fill-opacity:1"
   id="Circle-Background">
					<circle
   style="clip-rule:evenodd;fill:#264143;fill-opacity:1;fill-rule:evenodd"
   id="circle6"
   r="120"
   cy="120"
   cx="120"
   class="st0" />
				</g>
				<defs
   id="defs12">
					<filter
   height="240"
   width="240"
   y="0"
   x="0"
   filterUnits="userSpaceOnUse"
   id="Adobe_OpacityMaskFilter">
						<feColorMatrix
   id="feColorMatrix9"
   values="1 0 0 0 0  0 1 0 0 0  0 0 1 0 0  0 0 0 1 0"
   type="matrix" />
					</filter>
				</defs>
				<mask
   id="mask-2_1_"
   height="240"
   width="240"
   y="0"
   x="0"
   maskUnits="userSpaceOnUse">
					<g
   id="g15"
   class="st1"
   style="filter:url(#Adobe_OpacityMaskFilter)">
						<circle
   r="120"
   cy="120"
   cx="120"
   class="st2"
   id="path-1_1_"
   style="clip-rule:evenodd;fill:#ffffff;fill-rule:evenodd" />
					</g>
				</mask>
				<g
   style="fill:#264143;fill-opacity:1"
   id="g20"
   mask="url(#mask-2_1_)"
   class="st3">
					<rect
   style="clip-rule:evenodd;fill:#264143;fill-opacity:1;fill-rule:evenodd"
   id="rect18"
   height="240"
   width="240"
   class="st4"
   x="0"
   y="0" />
				</g>
			</g><g
     mask="url(#mask-4_1_)"
     class="st6"
     id="Avataaar">
				<g
   transform="translate(32,36)"
   id="Body">
					<g
   id="g35">
						<path
   id="path33"
   d="M 124,144.6 V 163 h 4 v 0 c 39.8,0 72,32.2 72,72 v 9 H 0 v -9 c 0,-39.8 32.2,-72 72,-72 v 0 h 4 V 144.6 C 58.8,136.4 46.4,119.7 44.3,99.9 38.5,99.1 34,94.1 34,88 V 74 C 34,68.1 38.3,63.1 44,62.2 V 56 56 C 44,25.1 69.1,0 100,0 v 0 0 c 30.9,0 56,25.1 56,56 v 6.2 c 5.7,1 10,5.9 10,11.8 v 14 c 0,6.1 -4.5,11.1 -10.3,11.9 -2.1,19.8 -14.5,36.5 -31.7,44.7 z"
   class="st7"
   inkscape:connector-curvature="0"
   style="clip-rule:evenodd;fill:#d0c6ac;fill-rule:evenodd" />
					</g>
					<defs
   id="defs40">
						<filter
   height="244"
   width="264"
   y="0"
   x="-32"
   filterUnits="userSpaceOnUse"
   id="Adobe_OpacityMaskFilter_2_">
							<feColorMatrix
   id="feColorMatrix37"
   values="1 0 0 0 0  0 1 0 0 0  0 0 1 0 0  0 0 0 1 0"
   type="matrix" />
						</filter>
					</defs>
					<mask
   id="mask-6_1_"
   height="244"
   width="264"
   y="0"
   x="-32"
   maskUnits="userSpaceOnUse">
						<g
   id="g43"
   class="st8"
   style="filter:url(#Adobe_OpacityMaskFilter_2_)">
							<path
   d="M 124,144.6 V 163 h 4 v 0 c 39.8,0 72,32.2 72,72 v 9 H 0 v -9 c 0,-39.8 32.2,-72 72,-72 v 0 h 4 V 144.6 C 58.8,136.4 46.4,119.7 44.3,99.9 38.5,99.1 34,94.1 34,88 V 74 C 34,68.1 38.3,63.1 44,62.2 V 56 56 C 44,25.1 69.1,0 100,0 v 0 0 c 30.9,0 56,25.1 56,56 v 6.2 c 5.7,1 10,5.9 10,11.8 v 14 c 0,6.1 -4.5,11.1 -10.3,11.9 -2.1,19.8 -14.5,36.5 -31.7,44.7 z"
   class="st2"
   id="path-5_1_"
   inkscape:connector-curvature="0"
   style="clip-rule:evenodd;fill:#ffffff;fill-rule:evenodd" />
						</g>
					</mask>
					<g
   id="g49"
   mask="url(#mask-6_1_)"
   class="st9">
						<g
   transform="translate(-32)"
   id="Color">
							<rect
   id="rect46"
   height="244"
   width="264"
   class="st10"
   x="0"
   y="0"
   style="clip-rule:evenodd;fill:#edb98a;fill-rule:evenodd" />
						</g>
					</g>
					<defs
   id="defs54">
						<filter
   height="79"
   width="112"
   y="79"
   x="44"
   filterUnits="userSpaceOnUse"
   id="Adobe_OpacityMaskFilter_3_">
							<feColorMatrix
   id="feColorMatrix51"
   values="1 0 0 0 0  0 1 0 0 0  0 0 1 0 0  0 0 0 1 0"
   type="matrix" />
						</filter>
					</defs>
					<mask
   id="mask-6_2_"
   height="79"
   width="112"
   y="79"
   x="44"
   maskUnits="userSpaceOnUse">
						<g
   id="g57"
   class="st11"
   style="filter:url(#Adobe_OpacityMaskFilter_3_)">
							<path
   d="M 124,144.6 V 163 h 4 v 0 c 39.8,0 72,32.2 72,72 v 9 H 0 v -9 c 0,-39.8 32.2,-72 72,-72 v 0 h 4 V 144.6 C 58.8,136.4 46.4,119.7 44.3,99.9 38.5,99.1 34,94.1 34,88 V 74 C 34,68.1 38.3,63.1 44,62.2 V 56 56 C 44,25.1 69.1,0 100,0 v 0 0 c 30.9,0 56,25.1 56,56 v 6.2 c 5.7,1 10,5.9 10,11.8 v 14 c 0,6.1 -4.5,11.1 -10.3,11.9 -2.1,19.8 -14.5,36.5 -31.7,44.7 z"
   class="st2"
   id="path-5_2_"
   inkscape:connector-curvature="0"
   style="clip-rule:evenodd;fill:#ffffff;fill-rule:evenodd" />
						</g>
					</mask>
					<path
   mask="url(#mask-6_2_)"
   d="m 156,79 v 23 c 0,30.9 -25.1,56 -56,56 -30.9,0 -56,-25.1 -56,-56 V 79 94 c 0,30.9 25.1,56 56,56 30.9,0 56,-25.1 56,-56 z"
   class="st12"
   id="Neck-Shadow"
   inkscape:connector-curvature="0"
   style="clip-rule:evenodd;fill-opacity:0.1;fill-rule:evenodd" />
				</g>
				<g
   style="fill:#800080"
   id="g92"
   transform="translate(0,170)">
					<g
   style="fill:#800080"
   id="Clothes">
						<path
   style="clip-rule:evenodd;fill:#800080;fill-rule:evenodd"
   id="path62"
   d="m 166,29.3 c 37,3 66,34 66,71.8 V 110 H 32 v -8.9 C 32,63 61.6,31.8 99,29.2 c 0,0.4 0,0.7 0,1.1 0,11.9 15,21.5 33.5,21.5 18.5,0 33.5,-9.6 33.5,-21.5 0,-0.3 0,-0.7 0,-1 z"
   class="st0"
   inkscape:connector-curvature="0" />
					</g>
					<defs
   id="defs68">
						<filter
   height="110"
   width="264"
   y="0"
   x="0"
   filterUnits="userSpaceOnUse"
   id="Adobe_OpacityMaskFilter_4_">
							<feColorMatrix
   id="feColorMatrix65"
   values="1 0 0 0 0  0 1 0 0 0  0 0 1 0 0  0 0 0 1 0"
   type="matrix" />
						</filter>
					</defs>
					<mask
   id="react-mask-952_1_"
   height="110"
   width="264"
   y="0"
   x="0"
   maskUnits="userSpaceOnUse">
						<g
   id="g71"
   class="st13"
   style="filter:url(#Adobe_OpacityMaskFilter_4_)">
							<path
   d="m 166,29.3 c 37,3 66,34 66,71.8 V 110 H 32 v -8.9 C 32,63 61.6,31.8 99,29.2 c 0,0.4 0,0.7 0,1.1 0,11.9 15,21.5 33.5,21.5 18.5,0 33.5,-9.6 33.5,-21.5 0,-0.3 0,-0.7 0,-1 z"
   class="st2"
   id="react-path-951_1_"
   inkscape:connector-curvature="0"
   style="clip-rule:evenodd;fill:#ffffff;fill-rule:evenodd" />
						</g>
					</mask>
					<g
   style="fill:#000000"
   id="g76"
   mask="url(#react-mask-952_1_)"
   class="st14">
						<rect
   style="clip-rule:evenodd;fill:#000000;fill-rule:evenodd"
   id="rect74"
   height="110"
   width="264"
   class="st2"
   x="0"
   y="0" />
					</g>
					<defs
   id="defs81">
						<filter
   height="53.799999"
   width="79.300003"
   y="4.9000001"
   x="92.900002"
   filterUnits="userSpaceOnUse"
   id="Adobe_OpacityMaskFilter_5_">
							<feColorMatrix
   id="feColorMatrix78"
   values="1 0 0 0 0  0 1 0 0 0  0 0 1 0 0  0 0 0 1 0"
   type="matrix" />
						</filter>
					</defs>
					<mask
   id="react-mask-952_2_"
   height="53.8"
   width="79.3"
   y="4.9"
   x="92.9"
   maskUnits="userSpaceOnUse">
						<g
   id="g84"
   class="st15"
   style="filter:url(#Adobe_OpacityMaskFilter_5_)">
							<path
   d="m 166,29.3 c 37,3 66,34 66,71.8 V 110 H 32 v -8.9 C 32,63 61.6,31.8 99,29.2 c 0,0.4 0,0.7 0,1.1 0,11.9 15,21.5 33.5,21.5 18.5,0 33.5,-9.6 33.5,-21.5 0,-0.3 0,-0.7 0,-1 z"
   class="st2"
   id="react-path-951_2_"
   inkscape:connector-curvature="0"
   style="clip-rule:evenodd;fill:#ffffff;fill-rule:evenodd" />
						</g>
					</mask>
					<g
   style="opacity:0.6;fill:#f9f9f9"
   mask="url(#react-mask-952_2_)"
   class="st16"
   id="Shadowy">
						<g
   style="fill:#f9f9f9"
   id="g89"
   transform="translate(92,4)">
							<ellipse
   style="clip-rule:evenodd;fill:#f9f9f9;fill-opacity:0.16000001;fill-rule:evenodd"
   id="ellipse87"
   ry="26.9"
   rx="39.599998"
   cy="27.799999"
   cx="40.5"
   class="st17" />
						</g>
					</g>
				</g>
				<g
   transform="translate(104,122)"
   id="g126">
						<path
   id="Nose"
   class="st17"
   d="m 16,8 c 0,4.4 5.4,8 12,8 v 0 c 6.6,0 12,-3.6 12,-8"
   inkscape:connector-curvature="0"
   style="clip-rule:evenodd;fill-opacity:0.16000001;fill-rule:evenodd" />
					</g><g
   transform="translate(76,90)"
   id="g131">
						<path
   id="Squint"
   class="st24"
   d="M 16.2,22.4 C 18,18.6 22.2,16 27,16 c 4.8,0 9,2.6 10.8,6.4 0.6,1.1 -0.2,2 -1,1.4 -2.5,-2.1 -5.9,-3.4 -9.8,-3.4 -3.7,0 -7.1,1.2 -9.6,3.2 -0.9,0.7 -1.8,0 -1.2,-1.2 z"
   inkscape:connector-curvature="0"
   style="clip-rule:evenodd;fill-opacity:0.6;fill-rule:evenodd" />
						<path
   class="st24"
   d="M 74.2,22.4 C 76,18.6 80.2,16 85,16 c 4.8,0 9,2.6 10.8,6.4 0.6,1.1 -0.2,2 -1,1.4 -2.5,-2.1 -5.9,-3.4 -9.8,-3.4 -3.7,0 -7.1,1.2 -9.6,3.2 -0.9,0.7 -1.8,0 -1.2,-1.2 z"
   id="path129"
   inkscape:connector-curvature="0"
   style="clip-rule:evenodd;fill-opacity:0.6;fill-rule:evenodd" />
					</g><path
   style="clip-rule:evenodd;fill-opacity:0.6;fill-rule:evenodd"
   inkscape:connector-curvature="0"
   d="m 102.5,88.1 c -5.8,0.3 -15.2,4.5 -15,10.3 0,0.2 0.3,0.3 0.4,0.1 2.8,-3 22.3,-5.9 29.2,-4.4 0.6,0.1 1.1,-0.5 0.7,-0.9 -3.3,-3.7 -10.1,-5.3 -15.3,-5.1"
   class="st24"
   id="Eyebrow" /><path
   style="clip-rule:evenodd;fill-opacity:0.6;fill-rule:evenodd"
   inkscape:connector-curvature="0"
   id="path134"
   d="m 162.5,88.1 c 5.8,0.3 15.2,4.5 15,10.3 0,0.2 -0.3,0.3 -0.4,0.1 -2.8,-3 -22.3,-5.9 -29.2,-4.4 -0.6,0.1 -1.1,-0.5 -0.7,-0.9 3.3,-3.7 10.1,-5.3 15.3,-5.1"
   class="st24" />
				<g
   id="Top">
					<defs
   id="defs142">
						<filter
   height="280"
   width="264"
   y="0"
   x="-1"
   filterUnits="userSpaceOnUse"
   id="Adobe_OpacityMaskFilter_8_">
							<feColorMatrix
   id="feColorMatrix139"
   values="1 0 0 0 0  0 1 0 0 0  0 0 1 0 0  0 0 0 1 0"
   type="matrix" />
						</filter>
					</defs>
					<mask
   id="react-mask-925_1_"
   height="280"
   width="264"
   y="0"
   x="-1"
   maskUnits="userSpaceOnUse">
						<g
   id="g145"
   class="st25"
   style="filter:url(#Adobe_OpacityMaskFilter_8_)">
							<rect
   height="280"
   width="264"
   class="st2"
   id="react-path-927_1_"
   x="0"
   y="0"
   style="clip-rule:evenodd;fill:#ffffff;fill-rule:evenodd" />
						</g>
					</mask>
					<g
   style="fill:#1a1a1a"
   transform="translate(-1)"
   id="g166">
							<g
   style="fill:#1a1a1a"
   id="Short-Hair">
								<path
   class="st27"
   d="m 183.7,38.9 c 5.4,-5 6.7,-15 3.6,-21.5 -3.8,-8 -11.4,-9 -18.7,-5.5 -6.9,3.3 -13.1,4.4 -20.6,2.8 C 140.7,13.2 133.9,10.4 126.4,10 114,9.3 102,13.9 93.6,23.1 c -1.6,1.8 -2.9,3.8 -4.1,5.8 -1,1.6 -2.1,3.4 -2.5,5.3 -0.2,0.9 0.2,3.1 -0.3,3.8 -0.5,0.8 -2.3,1.5 -3.1,2.1 -1.6,1.2 -2.9,2.5 -4.2,4 -2.7,3.2 -4.1,6.6 -5.4,10.6 -4.1,13.2 -4.5,29 0.9,42 0.7,1.7 2.9,5.4 4.2,1.6 0.3,-0.7 -0.3,-3.2 -0.3,-3.9 0,-2.7 1.5,-20.7 8,-30.8 2.1,-3.3 12,-15.6 14,-15.7 1.1,1.7 11.9,12.5 39.9,11.2 12.7,-0.6 22.4,-6.3 24.7,-8.7 1,5.5 13,13.8 14.8,17.2 5.3,9.8 6.4,30.3 8.4,30.3 2,0 3.5,-5.2 3.9,-6.2 3.1,-7.4 3.6,-16.6 3.3,-24.6 C 195.5,57 191.3,45.9 183.7,38.9 Z"
   id="path148"
   inkscape:connector-curvature="0"
   style="clip-rule:evenodd;fill:#1a1a1a;fill-rule:evenodd" />
							</g>
							<defs
   id="defs154">
								<filter
   id="Adobe_OpacityMaskFilter_9_"
   filterUnits="userSpaceOnUse"
   x="0"
   y="0"
   width="264"
   height="280">
									<feColorMatrix
   type="matrix"
   values="1 0 0 0 0  0 1 0 0 0  0 0 1 0 0  0 0 0 1 0"
   id="feColorMatrix151" />
								</filter>
							</defs>
							<mask
   maskUnits="userSpaceOnUse"
   x="0"
   y="0"
   width="264"
   height="280"
   id="react-mask-924_1_">
								<g
   class="st28"
   id="g157"
   style="filter:url(#Adobe_OpacityMaskFilter_9_)">
									<path
   id="react-path-926_1_"
   class="st2"
   d="m 183.7,38.9 c 5.4,-5 6.7,-15 3.6,-21.5 -3.8,-8 -11.4,-9 -18.7,-5.5 -6.9,3.3 -13.1,4.4 -20.6,2.8 C 140.7,13.2 133.9,10.4 126.4,10 114,9.3 102,13.9 93.6,23.1 c -1.6,1.8 -2.9,3.8 -4.1,5.8 -1,1.6 -2.1,3.4 -2.5,5.3 -0.2,0.9 0.2,3.1 -0.3,3.8 -0.5,0.8 -2.3,1.5 -3.1,2.1 -1.6,1.2 -2.9,2.5 -4.2,4 -2.7,3.2 -4.1,6.6 -5.4,10.6 -4.1,13.2 -4.5,29 0.9,42 0.7,1.7 2.9,5.4 4.2,1.6 0.3,-0.7 -0.3,-3.2 -0.3,-3.9 0,-2.7 1.5,-20.7 8,-30.8 2.1,-3.3 12,-15.6 14,-15.7 1.1,1.7 11.9,12.5 39.9,11.2 12.7,-0.6 22.4,-6.3 24.7,-8.7 1,5.5 13,13.8 14.8,17.2 5.3,9.8 6.4,30.3 8.4,30.3 2,0 3.5,-5.2 3.9,-6.2 3.1,-7.4 3.6,-16.6 3.3,-24.6 C 195.5,57 191.3,45.9 183.7,38.9 Z"
   inkscape:connector-curvature="0"
   style="clip-rule:evenodd;fill:#ffffff;fill-rule:evenodd" />
								</g>
							</mask>
							<g
   style="fill:#1a1a1a"
   class="st29"
   mask="url(#react-mask-924_1_)"
   id="g164">
								<g
   style="fill:#1a1a1a"
   id="g162">
									<rect
   class="st30"
   width="264"
   height="280"
   id="rect160"
   x="0"
   y="0"
   style="clip-rule:evenodd;fill:#1a1a1a;fill-rule:evenodd" />
								</g>
							</g>
						</g>
				</g>
			<path
   class="st24"
   d="m 135.39213,165.00382 c -7.31247,1.25271 -19.86757,-4.75539 -20.71669,-17.37497 -0.038,-0.43287 0.31844,-0.7477 0.48144,-0.34761 4.07129,5.57518 29.01474,5.45722 37.36209,-0.0523 0.73163,-0.41321 1.47084,0.7215 1.04627,1.71846 -3.42691,9.09079 -11.6302,14.78397 -18.17311,16.05641"
   id="path1032"
   inkscape:connector-curvature="0"
   style="clip-rule:evenodd;fill:#000000;fill-opacity:0.58823529;fill-rule:evenodd;stroke-width:1.66428316" /></g></g>
		</g>
	</g>
</g>
</svg>